<?xml version="1.0" encoding="UTF-8"?>
<svg width="362px" height="87px" viewBox="0 0 362 87" version="1.1" xmlns="http://www.w3.org/2000/svg" xmlns:xlink="http://www.w3.org/1999/xlink">
    <!-- Generator: Sketch 61.2 (89653) - https://sketch.com -->
    <title>Combined Shape Copy</title>
    <desc>Created with Sketch.</desc>
    <g id="Page-1" stroke="none" stroke-width="1" fill="none" fill-rule="evenodd">
        <g id="Artboard" transform="translate(-106.000000, -61.000000)" fill="#DDDDDD">
            <g id="Group-Copy" transform="translate(106.000000, 61.000000)">
                <path d="M106.904762,1 L111,5.0952381 L96.5150324,19.5809573 C107.44297,25.2260633 120.604626,33.3657442 136,44 L134.043285,45.3464 L132.331986,46.515223 L130.603185,47.6874538 C117.998327,56.2022736 106.99975,62.9232283 97.6074544,67.850318 L96.9830801,68.1764456 L90.5488466,71.3568827 C81.0497478,75.7856276 73.5334656,78 68,78 C62.3727029,78 54.6947733,75.7098921 44.9662113,71.1296764 L29.0952381,87 L25,82.9047619 L39.4859644,68.4195576 C28.5578306,62.7744317 15.3958424,54.6345792 0,44 L1.67732147,42.8452066 C16.1366926,32.9234523 28.5832755,25.2495422 39.0170701,19.8234763 L45.4512186,16.6430869 C54.9502866,12.2143623 62.4665471,10 68,10 C73.6274909,10 81.3057555,12.2902656 91.0347938,16.8707968 L106.904762,1 Z M345.79562,25 C348.605839,25 351.032847,25.415626 353.076642,26.246878 C355.120438,27.07813 356.79927,28.1360871 358.113139,29.4207493 C359.427007,30.7054115 360.403285,32.1223183 361.041971,33.6714697 C361.680657,35.2206212 362,36.6942043 362,38.092219 C362,40.585975 361.507299,42.8813641 360.521898,44.9783862 C359.536496,47.0754083 357.729927,48.9646174 355.10219,50.6460134 C352.474453,52.3274095 348.861314,53.7915466 344.262774,55.0384246 C339.664234,56.2853026 333.751825,57.2865834 326.525547,58.0422671 C326.489051,58.4578931 326.470803,58.864073 326.470803,59.2608069 L326.470803,59.2608069 L326.470803,60.4793468 L326.474361,60.981656 C326.543157,65.7986564 327.609489,69.4946526 329.673358,72.0696446 C331.808394,74.7334294 335.029197,76.0653218 339.335766,76.0653218 C341.087591,76.0653218 342.64781,75.8764009 344.016423,75.4985591 C345.385036,75.1207173 346.607664,74.657861 347.684307,74.1099904 C348.760949,73.5621198 349.709854,72.9575728 350.531022,72.2963497 C351.35219,71.6351265 352.109489,71.0305796 352.80292,70.4827089 C353.49635,69.9348383 354.135036,69.4719821 354.718978,69.0941402 C355.30292,68.7162984 355.886861,68.5273775 356.470803,68.5273775 C357.127737,68.5273775 357.729927,68.8485431 358.277372,69.4908742 L358.277372,69.4908742 L360.686131,72.6080692 L360.179631,73.1469622 C358.495068,74.9190715 356.848208,76.4491747 355.239051,77.7372719 C353.468978,79.1541787 351.653285,80.3349344 349.791971,81.2795389 C347.930657,82.2241435 345.987226,82.9137048 343.961679,83.3482229 C341.936131,83.782741 339.755474,84 337.419708,84 C334.244526,84 331.39781,83.4521294 328.879562,82.3563881 C326.361314,81.2606468 324.226277,79.7020493 322.474453,77.6805956 C320.722628,75.6591419 319.372263,73.2126161 318.423358,70.3410183 C317.474453,67.4694204 317,64.257765 317,60.7060519 C317,57.7588857 317.301095,54.8211655 317.903285,51.8928915 C318.505474,48.9646174 319.381387,46.1780339 320.531022,43.5331412 C321.680657,40.8882485 323.085766,38.4322767 324.74635,36.1652257 C326.406934,33.8981748 328.304745,31.9428434 330.439781,30.2992315 C332.574818,28.6556196 334.928832,27.3615114 337.501825,26.4169068 C340.074818,25.4723023 342.839416,25 345.79562,25 Z M176.407348,3 L171.990415,38.8967202 L211.071885,38.8967202 L215.488818,3 L226,3 L216.159744,83 L205.592652,83 L210.121406,46.4891835 L171.039936,46.4891835 L166.567093,83 L156,83 L165.896166,3 L176.407348,3 Z M250,26 L243.427609,83 L234,83 L240.572391,26 L250,26 Z M313,0 L302.940635,82.2185609 L297.855681,82.2185609 L297.603275,82.2140955 C296.451177,82.1724187 295.660184,81.8390047 295.230297,81.2138534 C294.769703,80.5440484 294.539406,79.7253979 294.539406,78.7579018 L294.539406,78.7579018 L295.58956,66.9804976 L295.165629,67.6994217 C293.882231,69.8360995 292.494371,71.7919301 291.002047,73.5669132 C289.34391,75.5391168 287.602866,77.2229321 285.778915,78.6183591 C283.954964,80.0137861 282.057318,81.0929164 280.085977,81.8557498 C278.114637,82.6185833 276.11566,83 274.089048,83 C269.298874,83 265.586489,81.2417619 262.951894,77.7252858 C260.317298,74.2088097 259,69.1015467 259,62.403497 C259,59.3521632 259.313204,56.3008294 259.939611,53.2494956 C260.566018,50.1981618 261.45957,47.2770679 262.620266,44.4862139 C263.780962,41.6953598 265.181167,39.0998655 266.82088,36.699731 C268.460594,34.2995965 270.284545,32.2250616 272.292733,30.4761264 C274.300921,28.7271912 276.484135,27.3503699 278.842375,26.3456624 C281.200614,25.3409549 283.669396,24.8386012 286.248721,24.8386012 C288.975435,24.8386012 291.471853,25.3781663 293.737973,26.4572966 C296.004094,27.5364268 297.929376,29.0806994 299.513818,31.0901143 L299.513818,31.0901143 L303.327533,0 L313,0 Z M287.386322,34 C284.563155,34 282.016944,34.8451754 279.747689,36.5355263 C277.478435,38.2258772 275.548675,40.4107456 273.95841,43.0901316 C272.368145,45.7695175 271.144177,48.7635965 270.286506,52.0723684 C269.428835,55.3811404 269,58.6359649 269,61.8368421 C269,66.1166667 269.76833,69.3804825 271.304991,71.6282895 C272.841651,73.8760965 275.003697,75 277.791128,75 C279.50647,75 281.230746,74.4695175 282.963956,73.4085526 C284.697166,72.3475877 286.376771,70.8730263 288.002773,68.9848684 C289.628774,67.0967105 291.147566,64.8489035 292.55915,62.2414474 C293.970733,59.6339912 295.194701,56.7837719 296.231054,53.6907895 L296.231054,53.6907895 L298,39.2328947 L297.742238,38.8820261 C296.437724,37.1603464 294.897643,35.9286184 293.121996,35.1868421 C291.227973,34.395614 289.316081,34 287.386322,34 Z M50.773,65.322 L49.4666349,66.6299451 C55.1505333,69.07168 60.2182018,70.5262631 64.6696405,70.9936945 L64.742322,71 L64.2221777,70.9389366 L63.7984796,70.8818448 L63.5908779,70.8509051 C62.8596104,70.7413665 62.1378355,70.6027348 61.4267655,70.4365091 L60.7715319,70.2742359 L60.1951912,70.1181279 L59.5862956,69.9374201 L59.0346233,69.7611134 L58.7963543,69.6803266 L58.4818369,69.5709189 L57.7355459,69.2929066 L57.2812307,69.1108795 C56.2183017,68.6754051 55.1897002,68.1753004 54.1997298,67.6156655 L54.0653642,67.5388394 C53.5583673,67.2487054 53.0618852,66.9428718 52.5763899,66.6220454 L52.0332978,66.2534258 L51.7627611,66.0630291 L51.1691837,65.6272132 L50.773,65.322 Z M91.7872024,24.3076799 L88.871,27.224 L88.9816709,27.3610546 C89.1996461,27.6397539 89.4124149,27.9229917 89.6196729,28.2104223 L89.8072612,28.4738613 L90.0932128,28.888648 L90.2664551,29.1481989 L90.498283,29.5059673 L90.7828315,29.9626888 L91.0797459,30.4619503 C91.1804946,30.6355728 91.2793643,30.8104084 91.3763273,30.9864297 L91.5663339,31.3374712 L91.8835363,31.9529214 L92.239803,32.6946517 L92.498873,33.2736849 L92.8179151,34.0423556 L93.0438674,34.6316103 L93.2283562,35.1462587 L93.4948539,35.9555598 L93.5918538,36.2736304 C93.8282027,37.0662129 94.0291424,37.8741594 94.1927827,38.6954436 L94.2557375,39.0219345 L94.3589339,39.6119778 L94.4286558,40.062498 L94.5204496,40.7530386 L94.5864697,41.3624553 C94.6704022,42.2288038 94.7133357,43.1068918 94.7133357,43.9949477 C94.7133357,44.6687211 94.6886217,45.3367567 94.6400456,45.9982074 L94.6008327,46.4746901 L94.5583601,46.9028855 L94.5184214,47.2537379 L94.4621493,47.6908178 L94.3982078,48.1303875 L94.3451114,48.4616599 L94.2293653,49.1073869 L94.0932101,49.7715429 L93.9902978,50.2243187 L93.863256,50.7389022 L93.6987119,51.348323 L93.5656891,51.803468 L93.5361543,51.9006327 C93.3236459,52.5950372 93.0837977,53.2778195 92.8179082,53.9475572 C92.6914046,54.2661878 92.5590812,54.581706 92.4210276,54.8940888 L92.1523083,55.4828715 L91.9897587,55.8218223 L91.7470188,56.306623 L91.533624,56.7137484 L91.1341633,57.4337305 L90.8429568,57.9280512 L90.6043672,58.3160064 L90.3279344,58.7480115 L90.2210817,58.9103014 L89.9074092,59.3726272 L89.4808862,59.9701983 L89.2883542,60.229156 L88.9824463,60.6278493 C87.6973576,62.2704408 86.2301867,63.7593003 84.6094619,65.0668181 L84.1595736,65.4220557 C83.8767135,65.6406383 83.5894105,65.8538083 83.2978219,66.0614092 L82.9922463,66.2758426 L82.4517503,66.6402091 L82.2042147,66.8009183 C81.8625023,67.0201542 81.5156383,67.2319576 81.1637923,67.4361394 L80.5537957,67.7797479 L80.0771205,68.03416 L79.6843075,68.2348149 L79.3597264,68.3946319 L78.9382743,68.5942455 L78.7162655,68.6958715 L78.2818546,68.8878281 L77.7296081,69.1189418 L77.2335672,69.314509 L76.8670125,69.4518721 L76.4502137,69.600814 L76.0322581,69.7425503 L75.6841202,69.8548764 C75.3970343,69.9453789 75.1077874,70.0313156 74.816535,70.112578 L74.1675216,70.2850561 L73.6012959,70.4216518 L73.164639,70.5182965 L72.6683809,70.6190644 L71.9435095,70.7491515 L71.4194114,70.8307279 L70.7877978,70.9153027 L70.7877978,70.9153027 L70.215,70.978 L70.5219007,70.9486208 C74.8948883,70.4822397 79.8632493,69.0603327 85.4269618,66.6828892 L91.962722,63.5920571 C100.713746,59.0843162 110.726194,52.5519573 122,43.9949477 L120.577327,42.9208337 L119.284248,41.9546693 L118.028588,41.0259246 C108.287536,33.8577938 99.5404076,28.2850456 91.7872024,24.3076799 Z M65,17 C60.5237119,17.4236702 55.4156404,18.8594077 49.6757856,21.3072126 L43.1212551,24.4007336 C34.345659,28.9121232 24.3052406,35.4496586 13,44.0133397 L14.426699,45.0883354 L15.7227737,46.0548013 L16.9818717,46.9842285 L18.2343169,47.8992433 C27.7479158,54.8130866 36.2993686,60.1856478 43.8886755,64.0169267 L46.617,61.287 L46.3536979,60.9651271 L46.1110959,60.6600423 L45.8436679,60.3130628 L45.5022197,59.852508 C44.9742126,59.1247179 44.4817113,58.3699855 44.0271523,57.5907656 L43.6396296,56.9035525 L43.3771043,56.4097133 L43.0811307,55.8211403 L42.8476123,55.3298317 L42.6888563,54.9803672 L42.4891017,54.5207131 L42.313355,54.0956505 L42.0493113,53.4146297 L41.8867151,52.9655036 C41.702383,52.4417566 41.5338293,51.9109293 41.3815443,51.373347 C41.2975498,51.0766073 41.2199436,50.7835904 41.1471942,50.4886828 L41.0585336,50.1179345 L40.949524,49.6263767 L40.8284966,49.0209945 L40.7331757,48.4839182 L40.6547345,47.9855491 L40.5942909,47.5522722 L40.5175037,46.9069972 L40.4879946,46.6158052 C40.4498871,46.21834 40.4204169,45.8183462 40.3997752,45.4160404 L40.3949788,45.3191913 C40.3743196,44.8864305 40.3638749,44.4510951 40.3638749,44.0133397 C40.3638749,43.4848865 40.379096,42.9599601 40.4091268,42.4389685 L40.45945,41.7282492 L40.5124506,41.1673897 L40.5630284,40.7214659 L40.626918,40.2341711 L40.6869611,39.8289383 L40.7750062,39.2992076 L40.8766991,38.7557881 L41.0205872,38.0749534 L41.0847384,37.796698 L41.2105435,37.2864412 L41.3343014,36.8221939 L41.5147715,36.1984009 L41.5443873,36.101165 C41.7606725,35.3958421 42.0051684,34.7025728 42.2765384,34.0227666 C42.4011045,33.7107267 42.5312809,33.4016348 42.6669724,33.0955392 L42.9236254,32.5340637 L43.1240302,32.1179146 L43.3924835,31.5873311 L43.6542109,31.0963274 L43.9532386,30.5634148 L44.2500706,30.0607558 L44.3827251,29.8438509 L44.5965177,29.5035949 L44.8689195,29.085623 L45.1978108,28.6023216 L45.5969769,28.0442283 L45.882304,27.6627699 L46.1170571,27.3590325 C47.4012762,25.7213721 48.8704839,24.2335391 50.4935497,22.9264167 L50.9476288,22.5685432 L51.2050844,22.3724022 L51.7808775,21.9506898 L52.1089278,21.7205085 L52.5342127,21.4325567 L52.9224763,21.1796357 C53.2678237,20.958801 53.6185727,20.745429 53.9744453,20.53978 L54.5877703,20.1957829 L55.0249338,19.9630184 L55.4195519,19.7615139 L55.8373753,19.5568346 L56.2806883,19.3491866 L56.6993771,19.1618591 L57.1960069,18.9504634 L57.6855028,18.7533118 L58.150228,18.5761998 L58.5343196,18.4370704 L59.1340626,18.2326873 L59.6019404,18.0839233 L60.2102588,17.9042193 L60.7625392,17.754246 L61.2013746,17.6438683 L61.7925005,17.5072972 L62.2224459,17.4165794 L62.7622585,17.3128158 C63.028768,17.2643534 63.2963451,17.2197642 63.5652093,17.1790567 L64.0032176,17.116336 L64.519896,17.0515394 L65,17 Z M345.902542,31 C343.588983,31 341.45904,31.4886251 339.512712,32.4658754 C337.566384,33.4431256 335.840395,34.7868447 334.334746,36.4970326 C332.829096,38.2072206 331.543785,40.2181009 330.478814,42.5296736 C329.413842,44.8412463 328.587571,47.3313551 328,50 C333.655367,49.2858556 338.190678,48.4683482 341.605932,47.5474777 C345.021186,46.6266073 347.646893,45.6305638 349.483051,44.5593472 C351.319209,43.4881306 352.531073,42.3323442 353.118644,41.0919881 C353.706215,39.851632 354,38.5548961 354,37.2017804 C354,36.5252226 353.853107,35.8204748 353.559322,35.0875371 C353.265537,34.3545994 352.797316,33.6874382 352.154661,33.0860534 C351.512006,32.4846686 350.676554,31.9866469 349.648305,31.5919881 C348.620056,31.1973294 347.371469,31 345.902542,31 Z M70.1064343,17 L70.5462173,17.046179 L71.0470992,17.1075077 L71.4081007,17.1575211 L71.899429,17.2334815 L72.3546585,17.3120534 L72.8661788,17.4098461 L73.6224662,17.5731207 L74.0343323,17.6715544 L74.4583747,17.780015 L74.9798009,17.9234203 L75.2830617,18.0119843 L75.6239517,18.1161286 L76.1741733,18.2946235 L76.4727128,18.3969265 C76.8521388,18.5294133 77.227729,18.67 77.5992734,18.8184781 L78.2809483,19.101677 L78.8652873,19.3619739 L79.1164181,19.4789475 L79.4111101,19.6202074 L79.7958454,19.8112421 L80.3458616,20.0976754 L80.8560362,20.3778218 L81.2711998,20.6164129 L81.8929809,20.9922384 C82.353108,21.2787677 82.8043338,21.57878 83.2457921,21.8915342 L83.5525454,22.1120509 L83.8561621,22.3367327 L84.1758571,22.5804327 L84.7147608,23.0084567 L84.814,23.09 L86.2432966,21.6609305 C80.3784689,19.0836943 75.1615524,17.5464441 70.5925471,17.0491799 L70.1064343,17 Z M247.446721,1 C248.29918,1 249.11612,1.18372703 249.897541,1.5511811 C250.678962,1.91863517 251.380464,2.42388451 252.002049,3.06692913 C252.623634,3.70997375 253.112022,4.46325459 253.467213,5.32677165 C253.822404,6.19028871 254,7.09973753 254,8.05511811 C254,9.01049869 253.813525,9.9015748 253.440574,10.7283465 C253.067623,11.5551181 252.570355,12.2900262 251.94877,12.9330709 C251.327186,13.5761155 250.625683,14.0813648 249.844262,14.4488189 C249.062842,14.816273 248.245902,15 247.393443,15 C246.576503,15 245.777322,14.816273 244.995902,14.4488189 C244.214481,14.0813648 243.530738,13.5761155 242.944672,12.9330709 C242.358607,12.2900262 241.887978,11.5551181 241.532787,10.7283465 C241.177596,9.9015748 241,9.01049869 241,8.05511811 C241,7.09973753 241.177596,6.19947507 241.532787,5.35433071 C241.887978,4.50918635 242.367486,3.76509186 242.971311,3.12204724 C243.575137,2.47900262 244.26776,1.96456693 245.04918,1.57874016 C245.830601,1.19291339 246.629781,1 247.446721,1 Z" id="Combined-Shape-Copy"></path>
            </g>
        </g>
    </g>
</svg>