<?xml version="1.0" encoding="UTF-8"?>
<svg width="24px" height="24px" viewBox="0 0 24 24" version="1.1" xmlns="http://www.w3.org/2000/svg" xmlns:xlink="http://www.w3.org/1999/xlink">
    <!-- Generator: Sketch 61.2 (89653) - https://sketch.com -->
    <title>linkedin</title>
    <desc>Created with Sketch.</desc>
    <g id="Page-1" stroke="none" stroke-width="1" fill="none" fill-rule="evenodd">
        <g id="Artboard" transform="translate(-175.000000, -890.000000)" fill="#4972AF" fill-rule="nonzero">
            <g id="linkedin" transform="translate(175.000000, 890.000000)">
                <path d="M1.98951966e-13,12 C1.99763591e-13,18.627417 5.372583,24 12,24 C18.627417,24 24,18.627417 24,12 C24,5.372583 18.627417,1.13565094e-12 12,1.13686838e-12 C5.372583,1.13808581e-12 1.98140342e-13,5.372583 1.98951966e-13,12 Z M8,18 L5,18 L5,9 L8,9 L8,18 Z M6.5,8 C5.60058575,8 5,7.35058103 5,6.53959903 C5,5.64941897 5.60058575,5 6.5,5 C7.39941425,5 8,5.64941897 8,6.46040097 C8,7.35058103 7.39941425,8 6.5,8 Z M19,18 L15.7272727,18 L15.7272727,13.0909091 C15.7272727,11.7805402 14.8259947,11.4545455 14.583097,11.4545455 C14.3370026,11.4545455 13.2727273,11.6175428 13.2727273,13.0909091 C13.2727273,13.2539065 13.2727273,18 13.2727273,18 L10,18 L10,9 L13.2727273,9 L13.2727273,10.3103697 C13.7649152,9.57208827 14.583097,9 16.1363636,9 C17.6896311,9 19,10.2272727 19,13.0909091 L19,18 Z" id="Shape"></path>
            </g>
        </g>
    </g>
</svg>