<?xml version="1.0" encoding="UTF-8"?>
<svg width="24px" height="24px" viewBox="0 0 24 24" version="1.1" xmlns="http://www.w3.org/2000/svg" xmlns:xlink="http://www.w3.org/1999/xlink">
    <!-- Generator: Sketch 61.2 (89653) - https://sketch.com -->
    <title>Shape</title>
    <desc>Created with Sketch.</desc>
    <g id="Page-1" stroke="none" stroke-width="1" fill="none" fill-rule="evenodd">
        <g id="Artboard" transform="translate(-176.000000, -921.000000)" fill="#4972AF">
            <path d="M188,921 C194.627417,921 200,926.372583 200,933 C200,939.627417 194.627417,945 188,945 C181.372583,945 176,939.627417 176,933 C176,926.372583 181.372583,921 188,921 Z M196.675656,929.776161 C196.126481,929.226987 195.257419,929.192663 194.668258,929.673191 L194.554336,929.776161 L188,936.330497 L181.445664,929.776161 C180.896489,929.226987 180.027427,929.192663 179.438266,929.673191 L179.324344,929.776161 L179.161165,929.93934 C178.61199,930.488515 178.577667,931.357577 179.058195,931.946738 L179.161165,932.06066 L188,940.899495 L196.838835,932.06066 C197.38801,931.511485 197.422333,930.642423 196.941805,930.053262 L196.838835,929.93934 L196.675656,929.776161 Z" id="Shape"></path>
        </g>
    </g>
</svg>