<?xml version="1.0" encoding="UTF-8"?>
<svg width="415px" height="86px" viewBox="0 0 415 86" version="1.1" xmlns="http://www.w3.org/2000/svg" xmlns:xlink="http://www.w3.org/1999/xlink">
    <!-- Generator: Sketch 61.2 (89653) - https://sketch.com -->
    <title>Combined Shape</title>
    <desc>Created with Sketch.</desc>
    <g id="Page-1" stroke="none" stroke-width="1" fill="none" fill-rule="evenodd">
        <g id="Artboard" transform="translate(-72.000000, -216.000000)" fill="#DDDDDD">
            <g id="Group" transform="translate(72.000000, 216.000000)">
                <path d="M192.177503,1 C196.415549,1 200.22979,1.81339713 203.620227,3.44019139 C207.010664,5.06698565 209.803922,7.29414445 212,10.1216678 L212,10.1216678 L208.821465,14.7115516 L208.641014,14.9362437 C208.282471,15.3702136 207.93808,15.7116981 207.607843,15.9606972 C207.222566,16.2511962 206.760234,16.3964457 206.220846,16.3964457 C205.565875,16.3964457 204.872377,16.0575302 204.140351,15.3796992 C203.408325,14.7018683 202.474028,13.9659376 201.337461,13.171907 C200.200894,12.3778765 198.823529,11.6419458 197.205366,10.9641148 C195.587203,10.2862839 193.564499,9.94736842 191.137255,9.94736842 C188.671483,9.94736842 186.475404,10.3347004 184.54902,11.1093643 C182.622635,11.8840283 180.99484,12.9395079 179.665635,14.2758031 C178.336429,15.6120984 177.325077,17.1711096 176.631579,18.9528366 C175.93808,20.7345637 175.591331,22.6518569 175.591331,24.7047163 C175.591331,26.7188426 176.053664,28.4134199 176.978328,29.7884484 C177.902993,31.1634769 179.116615,32.3448394 180.619195,33.3325359 C182.121775,34.3202324 183.845889,35.1917293 185.791538,35.9470267 C187.737186,36.702324 189.71173,37.4769879 191.71517,38.2710185 C193.71861,39.065049 195.693154,39.9462292 197.638803,40.9145591 C199.584451,41.882889 201.308566,43.0836181 202.811146,44.5167464 C204.313725,45.9498747 205.527348,47.6735019 206.452012,49.6876282 C207.376677,51.7017544 207.839009,54.1419458 207.839009,57.0082023 C207.839009,60.9589884 207.164775,64.6870586 205.816305,68.1924129 C204.467836,71.6977671 202.53182,74.767373 200.008256,77.4012303 C197.484692,80.0350877 194.431373,82.1266803 190.848297,83.6760082 C187.265222,85.2253361 183.239078,86 178.769866,86 C173.838321,86 169.436533,85.0219868 165.564499,83.0659604 C161.692466,81.1099339 158.5043,78.4663933 156,75.1353383 L156,75.1353383 L159.814241,69.9644566 L159.974774,69.7578795 C160.253029,69.4243437 160.584795,69.1446039 160.970072,68.9186603 C161.432405,68.6475279 161.933265,68.5119617 162.472652,68.5119617 C163.204678,68.5119617 163.994496,68.9477102 164.842105,69.8192071 C165.689714,70.690704 166.76849,71.6590339 168.078431,72.7241969 C169.388373,73.7893598 171.006536,74.7576897 172.932921,75.6291866 C174.859305,76.5006835 177.267286,76.936432 180.156863,76.936432 C182.815273,76.936432 185.213622,76.5103668 187.351909,75.6582365 C189.490196,74.8061062 191.300998,73.6247437 192.784314,72.114149 C194.26763,70.6035543 195.413829,68.7927774 196.22291,66.6818182 C197.031992,64.570859 197.436533,62.2371839 197.436533,59.6807929 C197.436533,57.5504671 196.9742,55.7784233 196.049536,54.3646617 C195.124871,52.9509 193.911249,51.7598542 192.408669,50.7915243 C190.906089,49.8231943 189.201238,48.9807473 187.294118,48.2641832 C185.386997,47.547619 183.422085,46.8213716 181.399381,46.0854409 C179.376677,45.3495101 177.411765,44.5167464 175.504644,43.5871497 C173.597523,42.657553 171.892673,41.4761905 170.390093,40.0430622 C168.887513,38.6099339 167.673891,36.8475735 166.749226,34.7559809 C165.824561,32.6643882 165.362229,30.0886307 165.362229,27.0287081 C165.362229,23.6201868 165.978672,20.3472317 167.211558,17.2098428 C168.444444,14.0724539 170.216718,11.3030303 172.52838,8.90157211 C174.840041,6.50011392 177.652563,4.58282069 180.965944,3.14969241 C184.279326,1.71656414 188.016512,1 192.177503,1 Z M305.517318,26 C308.670391,26 311.557542,26.5465005 314.178771,27.6395014 C316.8,28.7325024 319.060335,30.3144775 320.959777,32.3854267 C322.859218,34.4563758 324.340782,36.9971237 325.404469,40.0076702 C326.468156,43.0182167 327,46.42186 327,50.2186002 C327,55.0891659 326.240223,59.6912752 324.72067,64.0249281 C323.201117,68.358581 321.121229,72.1553212 318.481006,75.4151486 C315.840782,78.674976 312.716201,81.2540748 309.107263,83.1524449 C305.498324,85.050815 301.623464,86 297.482682,86 C294.329609,86 291.442458,85.4534995 288.821229,84.3604986 C286.2,83.2674976 283.939665,81.6855225 282.040223,79.6145733 C280.140782,77.5436242 278.659218,75.012464 277.595531,72.021093 C276.531844,69.029722 276,65.6164909 276,61.7813998 C276,56.8724832 276.759777,52.2511985 278.27933,47.9175455 C279.798883,43.5838926 281.878771,39.7871524 284.518994,36.527325 C287.159218,33.2674976 290.274302,30.6979866 293.864246,28.8187919 C297.45419,26.9395973 301.338547,26 305.517318,26 Z M236.112994,0 L231.423729,39.4704684 L231.782373,38.9310387 C234.664181,34.658072 237.849718,31.4044128 241.338983,29.1700611 C244.973635,26.8426115 248.693032,25.6788866 252.497175,25.6788866 C256.828625,25.6788866 260.161959,27.1407558 262.497175,30.0644942 C264.832392,32.9882326 266,37.2391944 266,42.8173795 C266,43.5867843 265.981168,44.3850419 265.943503,45.2121521 C265.905838,46.0392623 265.830508,46.8952252 265.717514,47.7800407 L265.717514,47.7800407 L261.423729,85 L251.367232,85 L255.661017,47.7800407 L255.733208,47.0202535 C255.779243,46.5201403 255.821092,46.0328506 255.858757,45.5583842 C255.915254,44.8466848 255.943503,44.163838 255.943503,43.5098439 C255.943503,40.355284 255.369115,38.0085992 254.220339,36.4697895 C253.071563,34.9309799 251.254237,34.161575 248.768362,34.161575 C247.073446,34.161575 245.33145,34.6328355 243.542373,35.5753564 C241.753296,36.5178773 240.011299,37.8547183 238.316384,39.5858792 C236.621469,41.3170401 235.039548,43.4040507 233.570621,45.8469111 C232.101695,48.2897714 230.821092,51.0115411 229.728814,54.01222 L229.728814,54.01222 L226.056497,85 L216,85 L226.056497,0 L236.112994,0 Z M377.312139,27 L377.53815,27.0057143 C378.200578,27.04 378.722543,27.2285714 379.104046,27.5714286 C379.527938,27.952381 379.77842,28.4285714 379.855491,29 L379.855491,29 L386.387283,66.4857143 L386.520231,67.2811429 C386.689788,68.335619 386.828516,69.3657143 386.936416,70.3714286 C387.071291,71.6285714 387.196532,72.8857143 387.312139,74.1428571 C387.697495,72.9238095 388.073218,71.6761905 388.439306,70.4 C388.805395,69.1238095 389.258189,67.8190476 389.797688,66.4857143 L389.797688,66.4857143 L404.595376,29.2285714 L404.689306,29.0049107 C404.925337,28.494494 405.279383,28.0642857 405.751445,27.7142857 C406.290944,27.3142857 406.907514,27.1142857 407.601156,27.1142857 L407.601156,27.1142857 L415,27.1142857 L390.433526,85 L382.630058,85 L382.485371,84.9940035 C381.682664,84.9260435 381.172126,84.2804233 380.953757,83.0571429 L380.953757,83.0571429 L373.843931,43.8 L373.734746,43.1873016 C373.666238,42.7767196 373.606294,42.3619048 373.554913,41.9428571 C373.477842,41.3142857 373.400771,40.6952381 373.323699,40.0857143 C373.131021,40.7333333 372.938343,41.3619048 372.745665,41.9714286 C372.552987,42.5809524 372.321773,43.2095238 372.052023,43.8571429 L372.052023,43.8571429 L355.115607,83.0571429 L355.018001,83.2789916 C354.484636,84.4263305 353.746458,85 352.803468,85 L352.803468,85 L345.289017,85 L335,27.1142857 L342.687861,27.1142857 L342.939413,27.1213404 C343.595947,27.1589653 344.1383,27.3470899 344.566474,27.6857143 C345.04817,28.0666667 345.327553,28.5809524 345.404624,29.2285714 L345.404624,29.2285714 L350.780347,66.4857143 L350.869461,67.1484127 C351.005941,68.2462963 351.082209,69.3111111 351.098266,70.3428571 C351.117534,71.5809524 351.146435,72.8095238 351.184971,74.0285714 C351.647399,72.8095238 352.119461,71.5809524 352.601156,70.3428571 C353.082852,69.1047619 353.593449,67.8190476 354.132948,66.4857143 L354.132948,66.4857143 L370.144509,29 L370.237988,28.7901786 C370.471911,28.3110119 370.816474,27.9047619 371.271676,27.5714286 C371.791908,27.1904762 372.379576,27 373.034682,27 L373.034682,27 L377.312139,27 Z M68,9 C80.5184543,9 103.185121,20.3333333 136,43 L134.043285,44.3464 L132.331986,45.515223 L130.603185,46.6874538 C117.998327,55.2022736 106.99975,61.9232283 97.6074544,66.850318 L96.9830801,67.1764456 L90.5488466,70.3568827 C81.0497478,74.7856276 73.5334656,77 68,77 C55.4815457,77 32.814879,65.6666667 0,43 L1.67732147,41.8452066 C16.1366926,31.9234523 28.5832755,24.2495422 39.0170701,18.8234763 L45.4512186,15.6430869 C54.9502866,11.2143623 62.4665471,9 68,9 Z M304.646182,33 C301.798262,33 299.229361,33.7582897 296.939479,35.2748691 C294.649597,36.7914485 292.696462,38.8263525 291.080074,41.3795812 C289.463687,43.9328098 288.212911,46.8795812 287.327747,50.2198953 C286.442582,53.5602094 286,57.0541012 286,60.7015707 C286,66.0767888 287.048727,70.1369983 289.146182,72.882199 C291.243637,75.6273997 294.312849,77 298.353818,77 C301.163253,77 303.722533,76.2321117 306.031657,74.6963351 C308.340782,73.1605585 310.303538,71.1160558 311.919926,68.5628272 C313.536313,66.0095986 314.787089,63.0628272 315.672253,59.7225131 C316.557418,56.382199 317,52.8883072 317,49.2408377 C317,43.8656195 315.941651,39.8150087 313.824953,37.0890052 C311.708256,34.3630017 308.648665,33 304.646182,33 Z M70.6712517,15.9295048 L71.109638,15.9758131 L71.608929,16.0373133 L71.968784,16.0874667 L72.4585518,16.1636397 L72.9123355,16.2424315 L73.4222312,16.3404979 L74.1761165,16.5042294 L74.5866745,16.6029386 L75.0093701,16.7117027 L75.5291402,16.8555093 L75.8314378,16.9443212 L76.1712451,17.048757 L76.7197193,17.2277514 L77.0173105,17.3303407 C77.3955314,17.4631982 77.7699287,17.6041785 78.1402932,17.753072 L78.8198029,18.0370635 L79.4022861,18.2980889 L79.6526192,18.4153898 L79.9463753,18.557045 L80.3298887,18.7486144 L80.8781579,19.0358492 L81.3867123,19.3167797 L81.8005572,19.5560385 L82.4203635,19.9329157 C82.8790292,20.220247 83.3288219,20.5210989 83.7688781,20.8347283 L84.0746571,21.0558621 L84.3773096,21.2811727 L84.6959892,21.5255548 L85.2331813,21.9547766 L85.6047819,22.2649667 L85.8448572,22.4714059 L86.3538328,22.9254887 L86.8052331,23.3478896 C87.0618634,23.5935377 87.3133214,23.8437808 87.5598364,24.0988319 L87.8320485,24.384564 L88.0987743,24.6727252 C88.3187549,24.9138316 88.5344553,25.1589106 88.7457553,25.4078419 L89.0593902,25.7841131 L89.4865393,26.3195556 C89.7038222,26.5990349 89.9159153,26.8830653 90.122515,27.1713004 L90.3095075,27.4354766 L90.594551,27.8514241 L90.767243,28.1117013 L90.9983346,28.470471 L91.2819793,28.9284707 L91.5779507,29.4291295 C91.6783795,29.6032378 91.7769351,29.7785627 91.8735901,29.9550766 L92.0629933,30.3071005 L92.3791882,30.9242731 L92.7343234,31.6680793 L92.9925706,32.2487329 L93.3105994,33.0195548 L93.535834,33.6104585 L93.7197369,34.1265473 L93.9853882,34.9381132 L94.08208,35.257074 C94.3176782,36.0518746 94.5179798,36.8620821 94.6811003,37.6856649 L94.7438552,38.0130694 L94.8467238,38.604764 L94.9162242,39.0565451 L95.0077265,39.7490182 L95.0735369,40.3601404 C95.1572028,41.2289134 95.2,42.1094588 95.2,43 C95.2,43.675659 95.1753645,44.3455641 95.1269426,45.008866 L95.0878543,45.4866822 L95.0455166,45.9160759 L95.0057047,46.2679102 L94.9496113,46.7062133 L94.8858729,47.1470131 L94.8329452,47.4792127 L94.7175667,48.1267467 L94.5818439,48.7927615 L94.4792585,49.2468044 L94.3526202,49.762828 L94.1885987,50.3739543 L94.0559984,50.8303731 L94.0265574,50.9278097 C93.8147239,51.6241575 93.5756375,52.3088506 93.3105925,52.9804627 C93.1844907,53.299985 93.0525875,53.6163862 92.9149724,53.9296433 L92.6471066,54.5200737 L92.4850732,54.8599731 L92.2431043,55.3461306 L92.0303873,55.7543953 L91.6321953,56.4763923 L91.3419137,56.9720964 L91.1040819,57.3611373 L90.828527,57.7943515 L90.7220137,57.9570955 L90.4093374,58.4207151 L89.9841691,59.0199586 L89.7922486,59.279641 L89.4873123,59.6794501 C88.2063051,61.3266385 86.7437941,62.8196647 85.1282167,64.1308417 L84.6797574,64.4870735 C84.3977957,64.7062678 84.1114051,64.9200344 83.8207426,65.1282162 L83.5161376,65.3432497 L82.9773582,65.7086359 L82.7306088,65.869795 C82.3899817,66.0896444 82.0442194,66.3020405 81.6934909,66.5067937 L81.0854317,66.8513639 L80.6102704,67.1064879 L80.218705,67.3077044 L79.8951548,67.4679687 L79.4750413,67.6681409 L79.2537376,67.7700513 L78.8207064,67.9625451 L78.2702139,68.1943056 L77.7757484,68.3904201 L77.4103579,68.5281676 L76.9948829,68.6775264 L76.5782548,68.8196594 L76.2312225,68.9322997 C75.9450485,69.0230556 75.6567202,69.1092328 75.3663928,69.1907226 L74.7194408,69.3636834 L74.1550135,69.5006614 L73.7197434,69.5975765 L73.2250614,69.6986264 L72.5024923,69.8290776 L71.9800588,69.9108823 L71.3504512,69.9956937 L71.3504512,69.9956937 L70.774,70.059 L71.0853986,70.0291051 C75.4444973,69.5614188 80.3970785,68.1355324 85.9431202,65.7514355 L92.4581224,62.6519534 C101.181352,58.1315973 111.162001,51.580957 122.4,43 L120.981845,41.92288 L119.692874,40.9540117 L118.441201,40.0226679 C98.5014809,25.2617151 82.7396874,17.2471 71.1558206,15.9788224 L70.6712517,15.9295048 Z M65.2885859,15.93328 C60.8391051,16.3577874 55.7616245,17.796362 50.0561441,20.2490039 L43.540867,23.348638 C34.8178255,27.8689424 24.8375365,34.4193964 13.6,43 L15.0181549,44.07712 L16.3064677,45.0454957 L17.5580254,45.9767595 L18.80297,46.8935825 C38.2213032,61.1185961 53.6070481,68.8319587 64.9602048,70.03367 L65.032451,70.039988 L64.5154218,69.9788039 L64.094261,69.9215993 L63.8879026,69.8905984 C63.1610145,69.7808433 62.4435621,69.6419377 61.7367505,69.4753836 L61.0854409,69.3127897 L60.5125518,69.1563732 L59.9073027,68.9753083 L59.3589342,68.7986532 L59.1220921,68.7177068 L58.8094583,68.6080829 L58.0676366,68.3295212 L57.6160422,68.1471344 C56.5594788,67.7107995 55.5370373,67.2097065 54.5529956,66.6489658 L54.4194347,66.5719879 C53.9154741,66.2812805 53.4219652,65.9748426 52.9393774,65.6533822 L52.3995378,65.2840342 L52.1306212,65.0932612 L51.5405986,64.6565842 L51.0950314,64.309822 C50.769761,64.0516295 50.4504801,63.7859695 50.1374795,63.5132047 L49.6518651,63.0794914 C49.4838922,62.9259232 49.3178529,62.7702754 49.1537878,62.6125886 C48.861628,62.3319936 48.5757739,62.0447641 48.2964082,61.7513012 L47.9671014,61.3990367 C47.8075607,61.2256028 47.650297,61.0499636 47.495305,60.8722913 L47.0314774,60.3263184 L46.7539515,59.9852854 L46.5128024,59.6795977 L46.246976,59.3319326 L45.9075726,58.8704677 C45.3827276,58.1412394 44.8931757,57.3850157 44.4413389,56.604256 L44.056137,55.9156848 L43.7951839,55.4208698 L43.5009829,54.8311338 L43.2688629,54.3388542 L43.1110577,53.9886992 L42.9124993,53.5281368 L42.7378051,53.1022342 L42.4753428,52.4198676 L42.3137203,51.9698541 C42.1304921,51.4450721 41.9629478,50.9131959 41.8115748,50.3745512 C41.7280834,50.0772252 41.6509419,49.7836293 41.5786282,49.4881389 L41.4904985,49.1166579 L41.3821418,48.6241288 L41.2618392,48.0175503 L41.1670891,47.4794128 L41.0891177,46.9800588 L41.029036,46.5459257 L40.9527087,45.8993756 L40.9233763,45.6076082 C40.8854971,45.2093576 40.8562033,44.8085733 40.8356853,44.4054726 L40.8309176,44.3084321 C40.8103821,43.8748161 40.8,43.4386205 40.8,43 C40.8,42.4705026 40.8151298,41.9445389 40.8449808,41.4225177 L40.8950027,40.710394 L40.9476859,40.1484263 L40.9979607,39.7016213 L41.0614677,39.2133635 L41.1211513,38.8073299 L41.2086691,38.2765525 L41.309753,37.7320592 L41.4527794,37.0498791 L41.5165464,36.7710738 L41.6415981,36.2598087 L41.7646148,35.794644 L41.9440041,35.1696184 L41.9734426,35.0721903 C42.1884325,34.3654736 42.4314642,33.6708344 42.701209,32.9896848 C42.8250291,32.6770283 42.9544259,32.3673257 43.0893048,32.0606252 L43.3444208,31.4980402 L43.5436254,31.0810687 L43.810471,30.5494367 L44.070631,30.0574628 L44.3678679,29.5234971 L44.6629222,29.0198448 L44.7947823,28.8025113 L45.0072946,28.461583 L45.2780651,28.042785 L45.6049867,27.5585287 L46.0017623,26.9993325 L46.2853807,26.6171203 L46.5187279,26.3127827 C47.7952562,24.6718862 49.2556652,23.1811131 50.8690108,21.8714077 L51.3203705,21.5128271 L51.5762844,21.3162985 L52.1486292,20.8937527 L52.4747149,20.6631166 L52.8974529,20.3745958 L53.2833913,20.121175 C53.6266705,19.8999039 53.9753189,19.6861102 54.3290603,19.4800548 L54.9387122,19.135378 L55.3732577,18.9021536 L55.7655125,18.7002509 L56.1808336,18.4951671 L56.6214918,18.2871087 L57.0376732,18.0994111 L57.5313288,17.8875977 L58.0178932,17.6900564 L58.4798353,17.5125945 L58.8616267,17.3731902 L59.457778,17.1684032 L59.9228538,17.0193452 L60.5275291,16.8392861 L61.0765021,16.6890164 L61.5127094,16.5784206 L62.1002952,16.4415796 L62.5276658,16.3506826 L63.0642456,16.246714 C63.329159,16.1981558 63.5951337,16.1534785 63.8623877,16.1126906 L64.2977729,16.0498459 L64.8113571,15.9849212 L65.2885859,15.93328 Z" id="Combined-Shape"></path>
            </g>
        </g>
    </g>
</svg>