<?xml version="1.0" encoding="UTF-8"?>
<svg width="50px" height="50px" viewBox="0 0 50 50" version="1.1" xmlns="http://www.w3.org/2000/svg" xmlns:xlink="http://www.w3.org/1999/xlink">
    <!-- Generator: Sketch 61.2 (89653) - https://sketch.com -->
    <title>Shape</title>
    <desc>Created with Sketch.</desc>
    <g id="Page-1" stroke="none" stroke-width="1" fill="none" fill-rule="evenodd">
        <g id="icons" transform="translate(-179.000000, -161.000000)" fill="#DDDDDD">
            <path d="M204,161 C217.807119,161 229,172.192881 229,186 C229,199.807119 217.807119,211 204,211 C190.192881,211 179,199.807119 179,186 C179,172.192881 190.192881,161 204,161 Z M223.697975,180.484771 C222.902979,179.689775 221.638733,179.650026 220.796812,180.365522 L220.667517,180.484771 L204,197.152288 L187.332483,180.484771 C186.495645,179.647933 185.138863,179.647933 184.302025,180.484771 C183.50703,181.279767 183.46728,182.544013 184.182776,183.385934 L184.302025,183.515229 L204,203.213203 L223.697975,183.515229 C224.534812,182.678391 224.534812,181.321609 223.697975,180.484771 Z" id="Shape"></path>
        </g>
    </g>
</svg>